<svg width="30" height="20" viewBox="0 0 30 20" xmlns="http://www.w3.org/2000/svg"><title>Group</title><g fill="#FFF" fill-rule="evenodd"><path d="M.152 9.866C-.028 5.13 4.122.75 8.862.694c2.418-.206 4.77.733 6.598 2.264-.75.824-1.513 1.64-2.33 2.403-1.61-.977-3.547-1.723-5.43-1.06-3.034.864-4.872 4.447-3.75 7.417.93 3.1 4.703 4.803 7.66 3.5 1.53-.548 2.54-1.96 2.982-3.478-1.755-.036-3.51-.014-5.264-.062-.004-1.044-.01-2.084-.004-3.128 2.925-.004 5.855-.013 8.785.013.18 2.557-.198 5.294-1.86 7.347-2.277 2.93-6.483 3.79-9.904 2.64C2.714 17.358.073 13.7.152 9.867M23.81 5.918h2.61l.02 2.623c.872.01 1.75.014 2.622.02v2.613c-.873.004-1.75.01-2.623.013-.01.877-.014 1.75-.02 2.628-.872-.005-1.744 0-2.613 0-.01-.878-.01-1.75-.017-2.623-.873-.008-1.75-.013-2.623-.017V8.56c.872-.006 1.745-.01 2.623-.02.004-.872.013-1.75.02-2.622"/></g></svg>