<svg width="25" height="20" viewBox="0 0 25 20" xmlns="http://www.w3.org/2000/svg"><title>Shape</title><path d="M22.092 4.98c.01.215.015.435.015.65 0 6.676-5.08 14.37-14.366 14.37-2.852 0-5.505-.836-7.74-2.27.396.047.797.07 1.204.07 2.367 0 4.544-.807 6.27-2.16-2.208-.04-4.074-1.5-4.716-3.505.308.057.625.088.95.088.46 0 .908-.06 1.33-.175C2.73 11.582.99 9.543.99 7.095v-.063c.68.378 1.46.606 2.288.633C1.92 6.758 1.03 5.215 1.03 3.46c0-.924.247-1.792.683-2.538C4.203 3.978 7.925 5.987 12.12 6.2c-.084-.372-.128-.756-.128-1.153C11.992 2.26 14.252 0 17.04 0c1.453 0 2.765.61 3.686 1.593 1.15-.227 2.23-.647 3.207-1.225-.378 1.178-1.18 2.168-2.22 2.793 1.02-.122 1.992-.39 2.9-.794-.678 1.014-1.534 1.902-2.52 2.613z" fill="#FFF" fill-rule="evenodd"/></svg>