<svg width="135" height="48" viewBox="0 0 135 48" xmlns="http://www.w3.org/2000/svg" xmlns:sketch="http://www.bohemiancoding.com/sketch/ns"><title>Slice 1</title><desc>Created with Sketch.</desc><g sketch:type="MSLayerGroup" fill="none"><path d="M2.756.09h129.488c1.564 0 2.756 1.194 2.756 2.761v42.31c0 1.566-1.192 2.761-2.756 2.761h-129.488c-1.564-.011-2.756-1.206-2.756-2.761v-42.321c0-1.555 1.192-2.749 2.756-2.749z" id="Shape" fill="#1E2024" sketch:type="MSShapeGroup"/><g id="Group" fill="#fff" sketch:type="MSShapeGroup"><path d="M26.449 23.268c0-3.583 2.936-5.33 3.026-5.431-1.654-2.479-4.23-2.761-5.141-2.851-2.205-.18-4.32 1.285-5.422 1.285-1.102 0-2.846-1.285-4.68-1.285-2.385 0-4.59 1.375-5.782 3.583-2.475 4.327-.641 10.761 1.744 14.254 1.192 1.746 2.576 3.685 4.41 3.583 1.834-.09 2.475-1.104 4.68-1.104 2.115 0 2.756 1.104 4.68 1.104s3.128-1.746 4.32-3.493c1.372-1.927 1.924-3.955 1.924-4.045.011.101-3.758-1.375-3.758-5.6zM22.871 12.687c1.012-1.194 1.654-2.851 1.474-4.507-1.372.09-3.127 1.014-4.129 2.118-.922 1.014-1.654 2.761-1.474 4.417 1.553.09 3.116-.834 4.129-2.028z" id="Shape"/></g><g id="Group" fill="#fff" sketch:type="MSShapeGroup"><path d="M43.076 36.237h-2.115v-14.163h2.115v14.163zM48.679 22.434c-.551 2.028-1.282 3.685-2.025 4.969l-1.373.18c.551-1.566 1.013-3.223 1.282-4.879l2.115-.27zM59.231 36.237h-2.295l-1.283-3.955h-4.41l-1.192 3.955h-2.205l4.32-13.431h2.666l4.399 13.431zm-3.859-5.611l-1.102-3.493c-.09-.372-.371-1.194-.641-2.58-.09.552-.371 1.375-.641 2.58l-1.102 3.493h3.487zM70.436 31.268c0 1.656-.461 2.941-1.372 3.955-.821.823-1.744 1.285-2.936 1.285-1.282 0-2.205-.462-2.756-1.375v5.149h-2.115v-10.49c0-1.014 0-2.118-.09-3.223h1.924l.09 1.566c.731-1.194 1.834-1.746 3.308-1.746 1.102 0 2.115.462 2.846 1.375.641.834 1.102 2.028 1.102 3.504zm-2.205.09c0-.924-.18-1.746-.641-2.299-.461-.642-1.102-.924-1.834-.924-.551 0-1.012.18-1.474.552-.461.372-.731.823-.821 1.375-.09.27-.09.462-.09.642v1.656c0 .732.18 1.285.641 1.746.461.462 1.012.732 1.654.732.821 0 1.474-.27 1.924-.924.371-.721.641-1.544.641-2.558zM81.551 31.268c0 1.656-.461 2.941-1.373 3.955-.821.823-1.744 1.285-2.936 1.285-1.282 0-2.205-.462-2.756-1.375v5.149h-2.115v-10.49c0-1.014 0-2.118-.09-3.223h1.924l.09 1.566c.731-1.194 1.834-1.746 3.308-1.746 1.102 0 2.115.462 2.846 1.375.731.834 1.102 2.028 1.102 3.504zm-2.205.09c0-.924-.18-1.746-.641-2.299-.461-.642-1.102-.924-1.834-.924-.551 0-1.013.18-1.474.552-.461.372-.731.823-.821 1.375-.09.27-.09.462-.09.642v1.656c0 .732.18 1.285.641 1.746.461.462 1.012.732 1.654.732.821 0 1.474-.27 1.924-.924.461-.721.641-1.544.641-2.558zM94.039 32.462c0 1.104-.371 2.118-1.192 2.761-.922.823-2.115 1.194-3.679 1.194-1.474 0-2.576-.27-3.488-.823l.461-1.837c.923.552 2.025.823 3.128.823.821 0 1.474-.18 1.924-.552.461-.372.641-.823.641-1.476 0-.552-.18-1.014-.551-1.375-.371-.361-1.013-.732-1.834-1.014-2.385-.924-3.488-2.208-3.488-3.865 0-1.104.461-2.028 1.193-2.761.821-.732 1.924-1.104 3.307-1.104 1.193 0 2.205.18 3.026.642l-.551 1.746c-.731-.372-1.654-.642-2.576-.642-.731 0-1.372.18-1.744.552-.371.372-.551.732-.551 1.194 0 .552.18 1.014.641 1.285.371.27 1.012.642 1.924 1.014 1.193.462 2.025 1.014 2.576 1.656.563.924.832 1.656.832 2.58zM101.115 28.135h-2.385v4.687c0 1.194.461 1.837 1.282 1.837.371 0 .731 0 .922-.09l.09 1.656c-.461.18-1.013.27-1.654.27-.821 0-1.474-.27-2.025-.732-.461-.552-.731-1.375-.731-2.58v-4.879h-1.373v-1.656h1.373v-1.746l2.115-.642v2.389h2.385v1.487zM111.859 31.358c0 1.476-.461 2.761-1.282 3.685-.922 1.014-2.115 1.476-3.578 1.476-1.462 0-2.576-.462-3.398-1.375-.821-.924-1.282-2.118-1.282-3.583 0-1.476.461-2.761 1.282-3.685.821-.924 2.025-1.476 3.488-1.476 1.474 0 2.576.462 3.397 1.375.911.913 1.373 2.107 1.373 3.583zm-2.295 0c0-.924-.18-1.656-.551-2.299-.461-.732-1.103-1.194-1.924-1.194s-1.564.372-1.924 1.194c-.371.642-.551 1.375-.551 2.299 0 .924.18 1.656.551 2.299.461.732 1.102 1.194 1.924 1.194.821 0 1.474-.372 1.924-1.194.36-.642.551-1.375.551-2.299zM118.834 28.417l-.641-.09c-.731 0-1.373.27-1.744.823-.371.552-.551 1.104-.551 1.927v5.059h-2.115v-6.614c0-1.104 0-2.118-.09-3.031h1.834l.09 1.837h.09c.18-.642.551-1.194 1.103-1.566.461-.372 1.013-.552 1.564-.552h.551l-.09 2.208zM128.475 30.896c0 .372 0 .732-.09 1.014h-6.424c0 .924.371 1.656.922 2.208.551.462 1.282.642 2.115.642.922 0 1.834-.18 2.576-.462l.371 1.476c-.922.372-2.025.642-3.218.642-1.474 0-2.666-.462-3.578-1.285-.821-.924-1.282-2.118-1.282-3.583 0-1.476.371-2.67 1.192-3.685.821-1.014 1.924-1.566 3.398-1.566 1.372 0 2.475.552 3.217 1.566.529.823.799 1.837.799 3.031zm-2.014-.552c0-.642-.09-1.194-.461-1.656-.371-.642-.922-.924-1.744-.924-.731 0-1.282.27-1.744.924-.371.462-.551 1.014-.641 1.656h4.59z" id="Shape"/></g><g fill="#fff" sketch:type="MSShapeGroup"><path d="M46.012 9.927h-2.115v6.254h-1.193v-6.254h-2.025v-1.014h5.333v1.014zM51.705 13.33v.552h-3.487c0 .552.18.924.461 1.194.27.27.641.372 1.102.372.551 0 1.013-.09 1.373-.27l.18.823c-.461.18-1.102.372-1.744.372-.821 0-1.474-.27-1.924-.732-.461-.462-.731-1.104-.731-1.927s.18-1.476.641-1.927c.461-.552 1.103-.823 1.834-.823.731 0 1.283.27 1.744.823.461.349.551.901.551 1.544zm-1.102-.27c0-.372-.09-.642-.18-.924-.18-.372-.551-.462-.923-.462-.371 0-.641.18-.922.462-.18.27-.27.552-.371.924h2.396zm.551-4.327l-1.283 1.566h-.821l.922-1.566h1.181zM54.551 16.18h-1.193v-7.639h1.193v7.639zM60.975 13.33v.552h-3.488c0 .552.18.924.461 1.194.27.27.641.372 1.102.372.551 0 1.013-.09 1.373-.27l.18.823c-.461.18-1.102.372-1.744.372-.821 0-1.474-.27-1.924-.732-.461-.462-.731-1.104-.731-1.927s.18-1.476.641-1.927c.461-.552 1.102-.823 1.834-.823.731 0 1.283.27 1.744.823.371.349.551.901.551 1.544zm-1.102-.27c0-.372-.09-.642-.18-.924-.18-.372-.551-.462-.922-.462s-.641.18-.922.462c-.18.27-.27.552-.371.924h2.396zm.461-4.327l-1.283 1.566h-.821l.922-1.566h1.181zM66.397 11.121l-.18.924c-.27-.18-.641-.18-1.012-.18-.551 0-.922.18-1.193.552-.27.372-.461.732-.461 1.285 0 .552.18 1.014.461 1.285.281.27.731.462 1.193.462.371 0 .731-.09 1.012-.18l.18.823c-.371.18-.821.27-1.474.27-.821 0-1.474-.27-1.924-.732-.461-.462-.731-1.104-.731-1.927s.27-1.476.731-2.028c.551-.552 1.192-.732 2.025-.732.551-.09 1.001 0 1.372.18zM72.461 16.18h-1.192v-2.941c0-.924-.371-1.375-1.012-1.375-.551 0-.922.27-1.102.823 0 .09-.09.27-.09.462v3.132h-1.193v-7.639h1.193v3.132c.371-.552.922-.823 1.564-.823.461 0 .922.18 1.192.462.371.372.551 1.014.551 1.746.09-.101.09 3.02.09 3.02zM78.424 16.18h-1.013l-.09-.642c-.371.462-.821.732-1.564.732-.461 0-.923-.18-1.193-.462-.27-.27-.371-.642-.371-1.104 0-.642.27-1.104.821-1.476.551-.372 1.282-.462 2.295-.462v-.09c0-.642-.371-1.014-1.102-1.014-.551 0-1.012.09-1.373.372l-.27-.732c.461-.27 1.102-.462 1.834-.462 1.372 0 2.025.732 2.025 2.208v1.938c-.09.462 0 .924 0 1.194zm-1.193-1.746v-.823c-1.282 0-1.924.372-1.924 1.014 0 .27.09.462.18.642.18.09.371.18.551.18.27 0 .461-.09.731-.27.18-.18.371-.372.371-.642.09-.011.09-.011.09-.101zM83.205 11.955h-.371c-.371 0-.731.18-.922.462-.18.27-.27.642-.27 1.014v2.761h-1.193v-5.239h1.013v1.014c.09-.372.27-.642.551-.823.27-.18.551-.27.821-.27h.27v1.104h.101v-.023zM89.269 10.941v4.507c0 1.104-.27 1.927-.731 2.389-.461.462-1.102.642-1.924.642-.731 0-1.282-.09-1.744-.372l.27-.924c.461.27.922.372 1.474.372 1.013 0 1.564-.552 1.564-1.656v-.552c-.371.552-.821.823-1.564.823-.641 0-1.192-.27-1.564-.732-.371-.462-.641-1.104-.641-1.837 0-.823.27-1.566.731-2.028.461-.462 1.012-.732 1.564-.732.731 0 1.192.27 1.564.823v-.732l1.001.011zm-1.294 3.031v-.924c0-.372-.09-.642-.371-.924-.18-.27-.551-.372-.821-.372-.371 0-.731.18-1.013.462-.27.372-.371.732-.371 1.285 0 .462.09.924.371 1.194.27.372.551.552 1.013.552.27 0 .461-.09.731-.27.18-.18.371-.372.461-.642v-.361zM95.512 13.33v.552h-3.487c0 .552.18.924.461 1.194.27.27.641.372 1.102.372.551 0 1.013-.09 1.373-.27l.18.823c-.461.18-1.102.372-1.744.372-.821 0-1.474-.27-1.924-.732-.461-.462-.731-1.104-.731-1.927s.18-1.476.641-1.927c.461-.552 1.102-.823 1.834-.823.731 0 1.283.27 1.744.823.461.349.551.901.551 1.544zm-1.102-.27c0-.372-.09-.642-.18-.924-.18-.372-.551-.462-.922-.462s-.641.18-.922.462c-.18.27-.27.552-.371.924h2.396zM100.012 11.955h-.371c-.371 0-.731.18-.922.462-.18.27-.27.642-.27 1.014v2.761h-1.193v-5.239h1.013v1.014c.09-.372.27-.642.551-.823.27-.18.551-.27.821-.27h.27l.101 1.082zM109.282 16.18h-1.013l-.09-.823c-.371.642-.922.924-1.654.924-.641 0-1.192-.27-1.564-.732-.461-.462-.641-1.104-.641-1.927s.18-1.566.641-2.028c.461-.462 1.013-.732 1.654-.732.731 0 1.193.27 1.474.732v-3.031h1.192v6.254c-.09.439-.09.992 0 1.363zm-1.192-2.208v-1.1949999999999998c-.09-.27-.18-.552-.461-.732-.18-.18-.461-.27-.731-.27-.461 0-.731.18-1.013.552-.27.372-.371.823-.371 1.285 0 .552.09.924.371 1.285.27.372.551.552 1.013.552.371 0 .641-.18.922-.462.09-.27.27-.642.27-1.014zM115.166 16.18h-1.012l-.09-.642c-.371.462-.821.732-1.564.732-.461 0-.922-.18-1.193-.462-.27-.27-.371-.642-.371-1.104 0-.642.27-1.104.821-1.476.551-.372 1.282-.462 2.295-.462v-.09c0-.642-.371-1.014-1.102-1.014-.551 0-1.013.09-1.373.372l-.27-.732c.461-.27 1.103-.462 1.834-.462 1.373 0 2.025.732 2.025 2.208v1.938c-.09.462 0 .924 0 1.194zm-1.192-1.746v-.823c-1.282 0-1.924.372-1.924 1.014 0 .27.09.462.18.642.18.09.371.18.551.18.27 0 .461-.09.731-.27.18-.18.371-.372.371-.642.09-.011.09-.011.09-.101zM121.68 16.18h-1.192v-3.031c0-.924-.371-1.375-1.013-1.375-.371 0-.641.09-.821.372-.18.27-.371.552-.371.924v3.132h-1.192v-5.2509999999999994h1.012l.09.823c.09-.27.371-.462.641-.642s.641-.27 1.013-.27c.461 0 .922.18 1.192.462.371.372.641.924.641 1.746v3.11zM126.922 14.715c0 .462-.18.924-.551 1.194-.371.27-.821.462-1.474.462-.551 0-1.102-.09-1.474-.372l.27-.823c.371.27.821.372 1.282.372.551 0 .922-.18.922-.642 0-.18-.09-.372-.18-.462-.09-.09-.371-.27-.641-.372-.922-.372-1.373-.823-1.373-1.476 0-.462.18-.823.551-1.104.371-.27.821-.462 1.373-.462.551 0 .922.09 1.282.27l-.27.823c-.371-.18-.731-.27-1.103-.27-.27 0-.461.09-.551.18-.09.09-.18.27-.18.462s.09.372.18.462c.09.09.371.18.731.372.742.09 1.204.642 1.204 1.386z"/></g></g></svg>