<svg width="135" height="48" viewBox="0 0 135 48" xmlns="http://www.w3.org/2000/svg" xmlns:sketch="http://www.bohemiancoding.com/sketch/ns"><title>Slice 1</title><desc>Created with Sketch.</desc><defs><linearGradient x1="60.065%" y1="92.051%" x2="33.609%" y2="-58.685%" id="a"><stop stop-color="#D7E69D" offset="0%"/><stop stop-color="#94C4AA" offset="44.56%"/><stop stop-color="#01A4B6" offset="100%"/></linearGradient><linearGradient x1="-32.63%" y1="-128.758%" x2="80.544%" y2="113.498%" id="b"><stop stop-color="#ED277B" offset="0%"/><stop stop-color="#EE2F7C" offset="1.92%"/><stop stop-color="#F7BD81" offset="70.39%"/><stop stop-color="#FEEB74" offset="100%"/></linearGradient><linearGradient x1="50.831%" y1="74.405%" x2="-.095%" y2="-29.845%" id="c"><stop stop-color="#89CFBD" offset="0%"/><stop stop-color="#7DBEBB" offset="9.07%"/><stop stop-color="#457CAC" offset="53.96%"/><stop stop-color="#1C5AA2" offset="85.23%"/><stop stop-color="#084D9F" offset="100%"/></linearGradient><linearGradient x1="119.156%" y1="35.698%" x2="-22.769%" y2="61.127%" id="d"><stop stop-color="#F04A2B" offset="0%"/><stop stop-color="#B54F6B" offset="47.04%"/><stop stop-color="#8B5191" offset="83.53%"/><stop stop-color="#7851A1" offset="100%"/></linearGradient></defs><g sketch:type="MSShapeGroup" fill="none"><path d="M2.756.09h129.488c1.564 0 2.756 1.194 2.756 2.761v42.31c0 1.566-1.192 2.761-2.756 2.761h-129.488c-1.564-.011-2.756-1.206-2.756-2.761v-42.321c0-1.555 1.192-2.749 2.756-2.749z" id="Shape" fill="#1E2024"/><path d="M92.295 33.104c-.641.372-1.373.642-2.385.642-1.924 0-3.679-1.476-4.23-4.135l1.564-.09 4.77-1.927c-.18-.462-.371-1.375-1.474-2.028-.641-.372-1.373-.552-2.115-.552-2.115 0-4.68 1.566-4.68 4.687 0 1.566.641 3.313 2.115 4.327 1.013.732 2.025.823 2.756.823.641 0 1.283-.09 2.025-.372.18-.09.461-.27.641-.372l1.013-1.003zm-6.615-4.597c0-2.208 1.564-2.851 2.385-2.851 1.103 0 2.025.924 2.025 1.746 0 .27-.18.372-.551.552l-3.679 1.656c-.18-.372-.18-.732-.18-1.104zm-3.206 4.777v-12.135c.09-.732.27-1.014.922-1.375h-2.936l-1.564.732h1.564v13.161c0 .462-.09.462-.551 1.104h3.566l.731-.462-1.013-.09c-.54-.011-.72-.101-.72-.935zm-3.127-8h-4.23c-1.102 0-2.475.18-3.679 1.104-.922.732-1.282 1.837-1.282 2.761 0 1.566 1.192 3.223 3.397 3.223h.641c-.09.27-.18.462-.18.823 0 .642.371 1.014.641 1.375-.922.09-2.666.18-3.859.924-1.192.732-1.564 1.746-1.564 2.479 0 1.476 1.474 2.941 4.41 2.941 3.487 0 5.321-1.927 5.321-3.865 0-1.375-.821-2.118-1.744-2.851l-.731-.552c-.18-.18-.551-.462-.551-.924s.27-.732.551-1.014c.821-.642 1.744-1.375 1.744-2.941 0-1.566-1.013-2.389-1.474-2.761h1.282c-.068.023 1.305-.721 1.305-.721zm-1.834 12.507c0 1.285-1.013 2.208-3.026 2.208-2.205 0-3.578-1.014-3.578-2.479 0-1.476 1.282-1.927 1.744-2.118.821-.27 1.924-.372 2.115-.372h.461c1.642 1.206 2.284 1.758 2.284 2.761zm-1.654-6.614c-.371.372-.922.552-1.373.552-1.744 0-2.576-2.299-2.576-3.685 0-.552.09-1.104.461-1.476.371-.372.922-.642 1.474-.642 1.654 0 2.576 2.299 2.576 3.775-.011.372-.101 1.014-.563 1.476zm-11.486-5.983c-3.128 0-5.321 2.299-5.321 4.969 0 2.299 1.744 4.777 4.961 4.777 3.307 0 5.141-2.58 5.141-4.969.09-2.389-1.744-4.777-4.781-4.777zm2.306 8.192c-.461.642-1.282 1.014-2.115 1.014-2.475 0-3.487-3.313-3.487-5.33 0-.924.18-1.746.922-2.479.461-.462 1.192-.732 1.834-.732 2.576 0 3.398 3.403 3.398 5.239 0 .811-.101 1.544-.551 2.287zm-13.14-8.192c-3.127 0-5.321 2.299-5.321 4.969 0 2.299 1.744 4.777 4.961 4.777 3.307 0 5.141-2.58 5.141-4.969.09-2.389-1.744-4.777-4.781-4.777zm2.205 8.192c-.461.642-1.282 1.014-2.115 1.014-2.475 0-3.487-3.313-3.487-5.33 0-.924.18-1.746.922-2.479.461-.462 1.193-.732 1.834-.732 2.576 0 3.398 3.403 3.398 5.239.09.811 0 1.544-.551 2.287zm-13.68-2.49l2.846-.18v3.132c-.551.27-1.192.462-2.385.462-4.129 0-6.795-3.403-6.795-6.986 0-3.313 2.295-5.611 5.321-5.611 2.295 0 3.487 1.194 4.129 1.837l-.461.732.641-.18 1.564-1.476c-.461-.27-1.102-.823-2.475-1.194-.922-.27-1.924-.372-2.936-.372-4.871 0-7.718 3.403-7.718 7.177 0 3.031 2.025 6.896 7.256 6.896 1.012 0 2.025-.18 3.127-.372l2.756-.642v-3.223c0-.192.09-.18.18-.27l.461-.462h-4.039c.09-.09-1.474.732-1.474.732zm59.141-6.524c-1.102 0-2.205.372-3.026 1.194v-1.014h-1.654v13.792h1.654v-4.687c.821.823 1.924 1.285 3.026 1.285 2.756 0 4.59-2.118 4.59-5.33-.09-3.223-1.924-5.239-4.59-5.239zm-.18 9.014c-1.103 0-2.295-.924-2.846-1.746v-4.045c.551-.823 1.744-1.656 2.846-1.656 1.834 0 3.026 1.375 3.026 3.685 0 2.287-1.192 3.763-3.026 3.763zm5.962 1.465h1.654v-13.792h-1.654v13.792zm19.834-10.389l-3.218 7.91-3.308-7.91h-1.744l4.23 9.938-.731 1.566c-.371.823-.731 1.014-1.192 1.014l-.731-.09-.371-.18-.27 1.566.27.09c.27.09.731.18 1.103.18 1.192 0 2.115-.642 2.666-1.927l5.141-12.146h-1.845v-.011zm-8.629 9.014c0-.27-.09-.552-.09-.924v-4.687c0-1.104-.371-1.927-1.103-2.58-.731-.552-1.744-.924-2.936-.924s-2.205.27-2.936.924c-.731.642-1.192 1.285-1.102 2.118l.09.372h1.564v-.282c0-.462.18-.823.551-1.104.461-.27 1.013-.462 1.744-.462.731 0 1.373.18 1.744.552.371.372.551.823.551 1.375v.924h-2.115c-1.373 0-2.475.27-3.308.823-.922.552-1.373 1.375-1.373 2.299 0 .924.27 1.656.922 2.299.641.552 1.474.823 2.576.823.821 0 1.474-.18 2.205-.552.461-.18.821-.462 1.103-.823v.09c0 .27.09.552.18.924l.09.27h1.834l-.09-.372c-.011-.439-.101-.811-.101-1.082zm-1.834-1.938c-.18.552-.641.924-1.192 1.285-.641.372-1.193.552-2.025.552-.551 0-1.103-.18-1.373-.462-.27-.27-.461-.642-.461-1.104 0-.462.27-.924.821-1.285.551-.361 1.282-.552 2.115-.552h2.115v1.566z" id="Shape" fill="#fff"/><path d="M18.641 28.045l3.307-3.223-3.307 3.223-10.654-10.389 10.654 10.389-10.654 10.4 10.654-10.4 3.307 3.223-3.307-3.223z" id="Shape"/><path d="M22.039 24.823l-13.039-6.986c-.371-.18-.731-.27-1.012-.18l10.654 10.389 3.397-3.223z" fill="url(#a)"/><path d="M22.039 31.358l4.41-2.389c.922-.462.922-1.285 0-1.746l-4.41-2.389-3.307 3.223 3.307 3.301z" fill="url(#b)"/><path d="M8.078 17.746c-.371.09-.641.552-.641 1.104v18.49c0 .552.27.924.641 1.104l10.654-10.389-10.654-10.31z" fill="url(#c)"/><path d="M7.987 38.445c.27.09.641.09 1.012-.18l13.039-6.986-3.307-3.223c-.09-.011-10.744 10.389-10.744 10.389z" id="Shape" fill="url(#d)"/><path d="M34.807 15.718h1.834c1.924 0 3.127-1.104 3.127-3.313 0-2.208-1.192-3.313-3.217-3.313h-1.744v6.625zm1.193-.913v-4.687h.551c1.372 0 2.115.732 2.115 2.299 0 1.656-.731 2.389-2.115 2.389h-.551zm5.141.913h1.193v-6.625h-1.193v6.625zm2.385-.823c.641.642 1.474 1.014 2.385 1.014 1.474 0 2.385-.924 2.385-1.927 0-.924-.551-1.476-1.373-1.746l-.922-.372c-.551-.18-1.012-.462-1.012-.924s.461-.732 1.012-.732c.551 0 1.013.18 1.474.552l.551-.732c-.551-.552-1.282-.823-2.025-.823-1.282 0-2.205.823-2.205 1.837s.641 1.476 1.373 1.746l.922.372c.551.27 1.012.462 1.012 1.014s-.371.823-1.192.823c-.641 0-1.283-.27-1.744-.732.011-.203-.641.631-.641.631zm5.974.823h1.193v-2.389h1.012c1.474 0 2.475-.642 2.475-2.118 0-1.566-1.102-2.028-2.475-2.028h-2.205v6.535zm1.193-3.403v-2.299h.922c.922 0 1.474.27 1.474 1.104 0 .834-.461 1.194-1.474 1.194h-.922zm7.346 3.493c1.744 0 2.936-1.285 2.936-3.493 0-2.118-1.193-3.403-2.936-3.403-1.744 0-2.936 1.285-2.936 3.403 0 2.208 1.193 3.493 2.936 3.493zm0-1.003c-1.013 0-1.744-.924-1.744-2.479 0-1.476.641-2.389 1.744-2.389 1.102 0 1.744.924 1.744 2.389-.09 1.555-.731 2.479-1.744 2.479zm4.23.913h1.103v-2.851c0-.732-.09-1.566-.18-2.208l.641 1.375 2.025 3.685h1.192v-6.625h-1.102v2.851c0 .732.09 1.566.18 2.299l-.641-1.375-2.025-3.685h-1.193v6.535zm6.604 0h1.192v-6.625h-1.192v6.625zm2.858 0h2.295c1.474 0 2.576-.642 2.576-1.927 0-.924-.551-1.375-1.474-1.566.731-.18 1.103-.823 1.103-1.476 0-1.194-1.013-1.656-2.385-1.656h-2.115v6.625zm1.192-3.865v-1.837h.821c.821 0 1.282.27 1.282.823 0 .642-.371 1.014-1.282 1.014h-.821zm0 2.952v-2.118h1.013c1.013 0 1.474.372 1.474 1.014 0 .732-.551 1.104-1.474 1.104h-1.013zm4.86.913h3.949v-1.014h-2.756v-5.611h-1.192v6.625zm5.051 0h4.039v-1.014h-2.936v-1.927h2.385v-1.014h-2.385v-1.656h2.846v-1.014h-3.949v6.625zm7.076-.823c.641.642 1.474 1.014 2.385 1.014 1.474 0 2.385-.924 2.385-1.927 0-.924-.551-1.476-1.373-1.746l-.922-.372c-.551-.18-1.013-.462-1.013-.924s.461-.732 1.013-.732c.551 0 1.012.18 1.474.552l.551-.732c-.551-.552-1.282-.823-2.025-.823-1.282 0-2.205.823-2.205 1.837s.641 1.476 1.372 1.746l.922.372c.551.27 1.013.462 1.013 1.014s-.371.823-1.192.823c-.641 0-1.282-.27-1.744-.732 0-.203-.641.631-.641.631zm5.963-2.118c0 2.208 1.013 3.031 2.475 3.031 1.564 0 2.475-.823 2.475-3.031v-3.685h-1.103v3.775c0 1.476-.551 1.927-1.373 1.927-.821 0-1.373-.462-1.373-1.927v-3.775h-1.192c.09.011.09 3.685.09 3.685zm11.486 2.941l-1.564-2.761c.821-.27 1.282-.924 1.282-1.927 0-1.476-1.013-1.927-2.385-1.927h-2.205v6.625h1.193v-2.58h1.012l1.474 2.58 1.192-.011zm-3.679-5.701h.922c.922 0 1.372.27 1.372 1.014 0 .732-.461 1.104-1.372 1.104h-.922v-2.118z" fill="#fff"/></g></svg>