<?xml version="1.0" encoding="utf-8"?>
<!-- Generator: Adobe Illustrator 19.2.1, SVG Export Plug-In . SVG Version: 6.00 Build 0)  -->
<svg version="1.1" id="E-LOGO-LP-270x78.SVG" xmlns="http://www.w3.org/2000/svg" xmlns:xlink="http://www.w3.org/1999/xlink"
	 x="0px" y="0px" width="270px" height="78px" viewBox="0 0 270 78" style="enable-background:new 0 0 270 78;"
	 xml:space="preserve">
<style type="text/css">
	.st0{fill:#FFFFFF;}
	.st1{fill:#F00000;}
	.st2{fill:url(#Dégradé_1_);}
</style>
<g id="E-LOGO-LP-270x78">
	<path id="Filet" class="st0" d="M270,78H0V0h270V78z"/>
	<path id="Rouge" class="st1" d="M269,77H1v-4h268V77z"/>
	
		<linearGradient id="Dégradé_1_" gradientUnits="userSpaceOnUse" x1="135" y1="9" x2="135" y2="77" gradientTransform="matrix(1 0 0 -1 0 78)">
		<stop  offset="0" style="stop-color:#00A0F0"/>
		<stop  offset="1" style="stop-color:#3CB4F0"/>
	</linearGradient>
	<path id="Dégradé" class="st2" d="M269,69H1V1h268V69z"/>
	<path id="Ombre_portée_1_" d="M235,70V40.434c0-2.931-1.388-5.435-3.487-5.435c-2.192,0-3.513,2.504-3.513,5.435V70h-9V28h8v2.995
		l2.875-2.871c0.456-0.082,0.692-0.125,1.514-0.125c7.76,0,12.611,4.233,12.611,14.245V70H235z M201.999,55.13
		c0.457,6.187,3.522,8.87,6.535,8.87c1.187,0,2.466-0.21,3.466-0.373v6.494c-1,0.162-2.576,0.254-3.945,0.254
		c-6.483,0-15.054-3.468-15.054-21.457c0-18.639,7.932-20.919,13.044-20.919c4.84,0,10.959,2.85,10.959,11.722
		C217.003,50.221,206.29,54.805,201.999,55.13z M205.891,34c-2.101,0-3.926,2.446-3.926,12.783c0,0.814,0,1.653,0.091,2.223
		c2.648-0.163,5.985-4.013,5.985-9.711C208.041,35.469,207.534,34,205.891,34z M181,28h9v42h-9V28z M181,14h9v9h-9V14z
		 M178.999,58.198c0,7.244-6.176,12.177-13.754,12.177c-3.287,0-6.025-0.457-8.309-1.352l3.315-6.025
		c1.278,0.57,2.711,1.002,4.172,1.002c2.831,0,5.578-2.384,5.578-4.907c0-2.93-1.652-5.128-4.938-8.791
		c-5.662-5.291-7.065-7.895-7.065-12.209c0-5.942,5.238-10.094,12.177-10.094c3.196,0,4.948,0.386,6.865,1.038l-2.939,5.718
		c-0.912-0.406-1.916-0.756-3.377-0.756c-2.01,0-3.723,1.652-3.723,3.361c0,1.628,0.801,3.256,4.453,6.594
		C176.749,48.674,178.999,52.255,178.999,58.198z M146,28h9v42h-9V28z M146,14h9v9h-9V14z M136,42.977V70h-9V28h8v3.993
		c0.821-1.058,2.727-3.993,7.952-3.993H144v7h-0.581C139.128,35,136,38.012,136,42.977z M115,66.867l-3.406,3.346
		c-0.548,0.162-1.005,0.162-1.37,0.162c-5.752,0-11.223-5.747-11.223-13.724c0-13.023,11.073-17.744,14.999-18.233v-0.813
		c0-2.442-1.682-3.606-4.055-3.606c-2.282,0-3.945,0.256-5.945,0.744v-6.242c0,0,2.749-0.502,6.766-0.502
		c6.939,0,12.234,2.524,12.234,11.803V70h-8V66.867z M114,44.996c-1.552,0.163-5.999,3.76-5.999,11.655
		c0,5.047,1.673,7.105,3.225,7.105c1.37,0,2.409-1.407,2.774-2.384L114,44.996L114,44.996z M85,49.129V70h-9V6h6.714
		c10.306,0,20.28,4.891,20.28,19.482C102.994,42.644,89,48.218,85,49.129z M85,13.001v28.004c2-0.249,7.987-3.999,7.987-15.605
		C92.987,15.7,89,13.001,85,13.001z M54.153,56.968c0.397,5.472,2.851,7.163,5.464,7.163c1.029,0,1.383,0.008,2.383-0.136v6.128
		c-1,0.144-1.828,0.237-3.016,0.237c-5.624,0-12.985-3.096-12.985-19.008C45.999,34.864,52.808,32,57.242,32
		c4.198,0,9.757,3.368,9.757,11.216C66.999,52.504,57.876,56.68,54.153,56.968z M57.413,38.002c-1.821,0-3.413,2.262-3.413,11.406
		c0,0.719,0.008,1.343,0.087,1.846c2.297-0.143,5.919-3.43,5.919-8.47C60.006,39.4,58.839,38.002,57.413,38.002z M48,70H28V22h8v42
		h12V70z"/>
	<path id="Blanc" class="st0" d="M269,73H1v-4h268V73z"/>
	<path id="Le_Parisien" class="st0" d="M234,69V39.434c0-2.931-1.388-5.435-3.487-5.435c-2.192,0-3.513,2.504-3.513,5.435V69h-9V27
		h8v2.995l2.875-2.871c0.456-0.082,0.692-0.125,1.514-0.125c7.76,0,12.611,4.233,12.611,14.245V69H234z M200.999,54.13
		c0.457,6.187,3.522,8.87,6.535,8.87c1.187,0,2.466-0.21,3.466-0.373v6.494c-1,0.162-2.576,0.254-3.945,0.254
		c-6.483,0-15.054-3.468-15.054-21.457c0-18.639,7.932-20.919,13.044-20.919c4.84,0,10.959,2.85,10.959,11.722
		C216.003,49.221,205.29,53.805,200.999,54.13z M204.891,33c-2.101,0-3.926,2.446-3.926,12.783c0,0.814,0,1.653,0.091,2.223
		c2.648-0.163,5.985-4.013,5.985-9.711C207.041,34.469,206.534,33,204.891,33z M180,27h9v42h-9V27z M180,13h9v9h-9V13z
		 M177.999,57.198c0,7.244-6.176,12.177-13.754,12.177c-3.287,0-6.025-0.457-8.309-1.352l3.315-6.025
		c1.278,0.57,2.711,1.002,4.172,1.002c2.831,0,5.578-2.384,5.578-4.907c0-2.93-1.652-5.128-4.938-8.791
		c-5.662-5.291-7.065-7.895-7.065-12.209c0-5.942,5.238-10.094,12.177-10.094c3.196,0,4.948,0.386,6.865,1.038l-2.939,5.718
		c-0.912-0.406-1.916-0.756-3.377-0.756c-2.01,0-3.723,1.652-3.723,3.361c0,1.628,0.801,3.256,4.453,6.594
		C175.749,47.674,177.999,51.255,177.999,57.198z M145,27h9v42h-9V27z M145,13h9v9h-9V13z M135,41.977V69h-9V27h8v3.993
		c0.821-1.058,2.727-3.993,7.952-3.993H143v7h-0.581C138.128,34,135,37.012,135,41.977z M114,65.867l-3.406,3.346
		c-0.548,0.162-1.005,0.162-1.37,0.162c-5.752,0-11.223-5.747-11.223-13.724c0-13.023,11.073-17.744,14.999-18.233v-0.813
		c0-2.442-1.682-3.606-4.055-3.606c-2.282,0-3.945,0.256-5.945,0.744v-6.242c0,0,2.749-0.502,6.766-0.502
		c6.939,0,12.234,2.524,12.234,11.803V69h-8V65.867z M113,43.996c-1.552,0.163-5.999,3.76-5.999,11.655
		c0,5.047,1.673,7.105,3.225,7.105c1.37,0,2.409-1.407,2.774-2.384L113,43.996L113,43.996z M84,48.129V69h-9V5h6.714
		c10.306,0,20.28,4.891,20.28,19.482C101.994,41.644,88,47.218,84,48.129z M84,12.001v28.004c2-0.249,7.987-3.999,7.987-15.605
		C91.987,14.7,88,12.001,84,12.001z M53.153,55.968c0.397,5.472,2.851,7.163,5.464,7.163c1.029,0,1.383,0.008,2.383-0.136v6.128
		c-1,0.144-1.828,0.237-3.016,0.237c-5.624,0-12.985-3.096-12.985-19.008C44.999,33.864,51.808,31,56.242,31
		c4.198,0,9.757,3.368,9.757,11.216C65.999,51.504,56.876,55.68,53.153,55.968z M56.413,37.002c-1.821,0-3.413,2.262-3.413,11.406
		c0,0.719,0.008,1.343,0.087,1.846c2.297-0.143,5.919-3.43,5.919-8.47C59.006,38.4,57.839,37.002,56.413,37.002z M47,69H27V21h8v42
		h12V69z"/>
</g>
</svg>
