<svg width="36" height="65" viewBox="0 0 36 65" xmlns="http://www.w3.org/2000/svg"><title>Phone</title><defs><linearGradient x1="50%" y1="0%" x2="50%" y2="100%" id="a"><stop stop-color="#FF5722" offset="0%"/><stop stop-color="#FF5722" offset="100%"/></linearGradient></defs><g fill="none" fill-rule="evenodd"><g fill="#FF5722"><path d="M8 24v7.808h7.808V24H8zm6.462 6.5H9.269v-5.23h5.193v5.23z"/><path d="M10.346 26.385h3.038v3.038h-3.038zM8 35.692V43.5h7.808v-7.808H8zm6.462 6.462H9.269v-5.192h5.193v5.192z"/><path d="M10.346 38.038h3.038v3.038h-3.038zM8 34.385h2.154v1.308H8zM8 31.769h2.154v1.308H8z"/><path d="M9.5 33.077h4.115v1.962H9.5zM13.615 31.769h2.154v1.308h-2.154zM15.538 33.077h2.154v1.962h-2.154zM15.769 26.385h1.962v4.538h-1.962zM17.731 24h1.962v2.615h-1.962zM17.731 30.923h1.962v2.154h-1.962zM19.654 33.077H24v1.962h-4.346z"/><path d="M17.731 35.038h1.962v2.154h-1.962zM15.769 37.192h1.962v1.962h-1.962zM17.731 39.154h1.962V43.5h-1.962z"/><path d= "M19.654 36.962h1.962V41.5h-1.962zM25.5 31.769h1.962v1.962H25.5zM24 33.731h1.962v1.962H24z"/><path d="M21.615 35.038H24v2.154h-2.385zM25.308 35.692h2.154v3.231h-2.154zM23.346 39.154h1.962v2.154h-1.962z"/><path d="M21.615 41.308h2.154v2.154h-2.154zM25.308 41.308h2.154v2.154h-2.154zM19.654 24v7.808h7.808V24h-7.808zm6.5 6.5h-5.192v-5.23h5.192v5.23z"/><path d="M22.038 26.385h3.038v3.038h-3.038z"/></g><path d="M19.205 4.432H16.25c-.817 0-1.477.66-1.477 1.477 0 .817.66 1.477 1.477 1.477h2.955a1.476 1.476 0 1 0 0-2.955zM32.5 8.864H2.955V5.909a2.955 2.955 0 0 1 2.954-2.954h23.636A2.956 2.956 0 0 1 32.5 5.909v2.955zM2.955 53.182H32.5V11.818H2.955v41.364zM32.5 59.09a2.955 2.955 0 0 1-2.955 2.954H5.91a2.954 2.954 0 0 1-2.954-2.954v-2.955H32.5v2.955zM29.545 0H5.91A5.91 5.91 0 0 0 0 5.91v53.18A5.908 5.908 0 0 0 5.91 65h23.635a5.908 5.908 0 0 0 5.91-5.91V5.91A5.91 5.91 0 0 0 29.545 0zM17.727 60.568a1.477 1.477 0 1 0 0-2.955 1.477 1.477 0 0 0 0 2.955z" fill="url(#a)"/></g></svg>
