<?xml version="1.0" encoding="iso-8859-1"?>
<!-- Generator: Adobe Illustrator 19.0.0, SVG Export Plug-In . SVG Version: 6.00 Build 0)  -->
<svg version="1.1" id="Layer_1" xmlns="http://www.w3.org/2000/svg" xmlns:xlink="http://www.w3.org/1999/xlink" x="0rem" y="0rem"
	 viewBox="0 0 512 512" style="enable-background:new 0 0 512 512;" xml:space="preserve">
<path style="fill:#A5A5A5;" d="M512,105.739v38.957H0v-38.957c0-24.588,19.933-44.522,44.522-44.522h422.957
	C492.066,61.217,512,81.151,512,105.739z"/>
<path style="fill:#777777;" d="M397.913,94.052v1.113c0,4.61-3.738,8.348-8.348,8.348c-4.61,0-8.348-3.738-8.348-8.348v-1.113
	c0-4.61,3.738-8.348,8.348-8.348C394.175,85.704,397.913,89.442,397.913,94.052z M422.957,85.704c-4.61,0-8.348,3.738-8.348,8.348
	v1.113c0,4.61,3.738,8.348,8.348,8.348c4.61,0,8.348-3.738,8.348-8.348v-1.113C431.304,89.442,427.567,85.704,422.957,85.704z
	 M456.348,85.704c-4.61,0-8.348,3.738-8.348,8.348v1.113c0,4.61,3.738,8.348,8.348,8.348s8.348-3.738,8.348-8.348v-1.113
	C464.696,89.442,460.958,85.704,456.348,85.704z"/>
<path style="fill:#E9F2F4;" d="M512,128v311.652c0,24.588-19.933,44.522-44.522,44.522H44.522C19.933,484.174,0,464.24,0,439.652
	V128h66.783V50.087c0-12.295,9.966-22.261,22.261-22.261h89.043c12.295,0,22.261,9.966,22.261,22.261V128H512z"/>
<path style="fill:#C3E4ED;" d="M200.348,50.087V128H66.783V50.087c0-12.295,9.966-22.261,22.261-22.261h89.043
	C190.382,27.826,200.348,37.792,200.348,50.087z"/>
<path style="fill:#B2D1D8;" d="M178.087,66.783v22.261c0,6.147-4.983,11.13-11.13,11.13h-66.783c-6.147,0-11.13-4.983-11.13-11.13
	V66.783c0-6.147,4.983-11.13,11.13-11.13h66.783C173.104,55.652,178.087,60.635,178.087,66.783z"/>
<path style="fill:#CFDFE2;" d="M434.087,434.087h-55.652c-12.295,0-22.261-9.966-22.261-22.261V289.391
	c0-12.295,9.966-22.261,22.261-22.261h55.652c12.295,0,22.261,9.966,22.261,22.261v122.435
	C456.348,424.121,446.382,434.087,434.087,434.087z M456.348,200.348L456.348,200.348c0-12.295-9.966-22.261-22.261-22.261h-55.652
	c-12.295,0-22.261,9.966-22.261,22.261l0,0c0,12.295,9.966,22.261,22.261,22.261h55.652
	C446.382,222.609,456.348,212.643,456.348,200.348z"/>
<path style="fill:#FFD880;" d="M183.652,178.087c-70.693,0-128,57.307-128,128s57.307,128,128,128s128-57.307,128-128
	S254.345,178.087,183.652,178.087z M183.652,367.304c-33.81,0-61.217-27.408-61.217-61.217s27.408-61.217,61.217-61.217
	s61.217,27.408,61.217,61.217S217.462,367.304,183.652,367.304z"/>
<path style="fill:#FC8059;" d="M311.652,306.087c0,70.693-57.307,128-128,128v-66.783c33.81,0,61.217-27.408,61.217-61.217
	s-27.408-61.217-61.217-61.217v-66.783C254.345,178.087,311.652,235.394,311.652,306.087z"/>
<path style="fill:#BF5243;" d="M183.652,244.87v-66.783c70.693,0,128,57.307,128,128H244.87
	C244.87,272.277,217.462,244.87,183.652,244.87z"/>
<g>
</g>
<g>
</g>
<g>
</g>
<g>
</g>
<g>
</g>
<g>
</g>
<g>
</g>
<g>
</g>
<g>
</g>
<g>
</g>
<g>
</g>
<g>
</g>
<g>
</g>
<g>
</g>
<g>
</g>
</svg>
