<svg width="50" height="41" viewBox="0 0 50 41" xmlns="http://www.w3.org/2000/svg" xmlns:xlink="http://www.w3.org/1999/xlink"><title>Clipped</title><defs><path d="M49.894 9.491c0-1.55-1.181-2.81-2.633-2.81H36.596V4.125A4.13 4.13 0 0 0 32.47 0H17.422a4.13 4.13 0 0 0-4.125 4.125v2.556H2.632C1.181 6.68 0 7.94 0 9.49v28.426c0 1.55 1.181 2.81 2.632 2.81h44.63c1.45 0 2.632-1.26 2.632-2.81V13.68l-.011.018.01-4.206zm-33.75-5.366a1.28 1.28 0 0 1 1.278-1.278h15.05a1.28 1.28 0 0 1 1.278 1.278v2.556H16.144V4.125zM2.857 9.527h44.19l-.02 7.46c0 1.304-1.348 2.492-2.828 2.492H30.96a3.178 3.178 0 0 0-3.05-2.299h-5.744a3.18 3.18 0 0 0-3.051 2.299H5.693c-1.29 0-2.592-.974-2.846-2.11l.01-7.842zm18.98 12.799v-1.973c0-.18.147-.326.328-.326h5.745c.18 0 .325.146.325.326v2.522c0 .18-.146.327-.325.327h-5.745a.328.328 0 0 1-.328-.327v-.549zm25.2 15.555H2.847V21.667a6.681 6.681 0 0 0 1.834.567c.138.022.274.043.413.056.198.021.398.035.599.035H18.99v.548a3.178 3.178 0 0 0 3.175 3.174h5.743a3.177 3.177 0 0 0 3.174-3.174v-.548H44.2c.215 0 .426-.014.634-.038.145-.014.288-.04.431-.064l.088-.015a6.56 6.56 0 0 0 1.693-.552l-.008 16.225z" id="a"/><linearGradient x1="0%" y1="0%" x2="0%" y2="2327.273%" id="c"><stop stop-color="#AD93ED" stop-opacity="0" offset="0%"/><stop stop-color="#9574E8" stop-opacity="0" offset="100%"/></linearGradient><linearGradient x1="11.802%" y1="0%" x2="79.858%" y2="100.466%" id="d"><stop stop-color="#AD93ED" offset="0%"/><stop stop-color="#9574E8" offset="100%"/></linearGradient></defs><g fill="none" fill-rule="evenodd"><mask id="b" fill="#fff"><use xlink:href="#a"/></mask><g mask="url(#b)"><path fill="url(#c)" d="M0 0h49.752v40.539H0z"/><path fill="url(#d)" d="M0 0h49.752v40.539H0z"/></g></g></svg>
