<svg width="50" height="39" viewBox="0 0 50 39" xmlns="http://www.w3.org/2000/svg"><title>Page 1</title><defs><linearGradient x1="50%" y1="0%" x2="50%" y2="100%" id="a"><stop stop-color="#FF5722" offset="0%"/><stop stop-color="#FF5722" offset="100%"/></linearGradient></defs><path d="M2.752 8.265h44.036V2.761H2.752v5.504zm0 27.523h44.036V16.522H2.752v19.266zM46.788.009H2.752A2.752 2.752 0 0 0 0 2.761v33.027a2.752 2.752 0 0 0 2.752 2.752h44.036a2.752 2.752 0 0 0 2.752-2.752V2.76A2.752 2.752 0 0 0 46.788.01zM9.633 30.283h11.009a1.376 1.376 0 1 0 0-2.752H9.632a1.377 1.377 0 0 0 0 2.752zm24.77 0h5.504c.76 0 1.377-.615 1.377-1.376v-5.504c0-.761-.617-1.376-1.377-1.376h-5.504c-.76 0-1.376.615-1.376 1.376v5.504c0 .761.616 1.376 1.376 1.376zM9.633 24.78h16.513a1.376 1.376 0 1 0 0-2.752H9.633a1.375 1.375 0 1 0 0 2.752z" fill="url(#a)" fill-rule="evenodd"/></svg>
