<?xml version="1.0" standalone="no"?><!DOCTYPE svg PUBLIC "-//W3C//DTD SVG 1.1//EN" "http://www.w3.org/Graphics/SVG/1.1/DTD/svg11.dtd"><svg width="100%" height="100%" viewBox="0 0 20 17" version="1.1" xmlns="http://www.w3.org/2000/svg" xmlns:xlink="http://www.w3.org/1999/xlink" xml:space="preserve" style="fill-rule:evenodd;clip-rule:evenodd;stroke-linejoin:round;stroke-miterlimit:1.41421;"><path d="M8.886,1.532c0.156,-0.156 0.156,-0.409 0,-0.566l-0.849,-0.849c-0.156,-0.156 -0.409,-0.156 -0.566,0l-3.926,3.927l2.828,0l2.513,-2.512M13.627,4.044l2.828,0l-3.927,-3.927c-0.156,-0.156 -0.41,-0.156 -0.566,0l-0.849,0.849c-0.156,0.156 -0.156,0.409 0,0.566l2.514,2.512M19.6,5.044l-19.2,0c-0.221,0 -0.4,0.179 -0.4,0.4l0,1.2c0,0.221 0.179,0.4 0.4,0.4l1.294,0l2.813,7.657c0.51,1.311 1.071,1.343 2.078,1.343l6.786,0c1.249,0 1.657,-0.214 2.206,-1.572l2.729,-7.428l1.294,0c0.221,0 0.4,-0.179 0.4,-0.4l0,-1.2c0,-0.221 -0.179,-0.4 -0.4,-0.4M13.671,14.044l-7.342,0l-2.62,-7l12.581,0l-2.619,7" style="fill:#6f4ca1;"/></svg>
