<?xml version="1.0" standalone="no"?><!DOCTYPE svg PUBLIC "-//W3C//DTD SVG 1.1//EN" "http://www.w3.org/Graphics/SVG/1.1/DTD/svg11.dtd"><svg width="100%" height="100%" viewBox="0 0 20 26" version="1.1" xmlns="http://www.w3.org/2000/svg" xmlns:xlink="http://www.w3.org/1999/xlink" xml:space="preserve" style="fill-rule:evenodd;clip-rule:evenodd;stroke-linejoin:round;stroke-miterlimit:1.41421;"><path d="M12.235,0.015c0.058,0.01 0.113,0.022 0.167,0.052c0.045,0.024 0.054,0.034 0.095,0.065l7.316,6.578c0.063,0.066 0.113,0.133 0.139,0.222c0.016,0.057 0.014,0.072 0.019,0.131c0,5.374 0.067,10.75 -0.002,16.124c-0.012,0.317 -0.07,0.629 -0.188,0.926c-0.282,0.717 -0.871,1.291 -1.594,1.556c-0.278,0.101 -0.567,0.153 -0.863,0.165c-4.87,0.06 -9.741,0.06 -14.613,0c-0.296,-0.012 -0.585,-0.064 -0.864,-0.165c-0.723,-0.264 -1.312,-0.839 -1.594,-1.556c-0.118,-0.297 -0.176,-0.609 -0.189,-0.926c-0.085,-6.837 -0.085,-13.675 0,-20.51c0.013,-0.319 0.071,-0.63 0.189,-0.927c0.291,-0.738 0.906,-1.325 1.657,-1.579c0.28,-0.094 0.572,-0.139 0.868,-0.142l7.302,0c0.718,-0.005 1.437,-0.052 2.155,-0.014l0,0ZM11.707,2.971l-8.701,0l0,19.92c4.674,0 9.348,0 14.022,0l0,-14.475l-4.847,0c-0.061,-0.004 -0.076,-0.001 -0.134,-0.019c-0.153,-0.045 -0.277,-0.168 -0.321,-0.321c-0.018,-0.058 -0.015,-0.073 -0.019,-0.134l0,-4.971l0,0ZM13.913,11.206c0.094,0.007 0.137,0.01 0.228,0.033c0.255,0.062 0.364,0.128 0.553,0.308l0.019,0.019c0.046,0.048 0.031,0.031 0.073,0.082c0.09,0.115 0.127,0.17 0.181,0.305c0.142,0.349 0.141,0.554 -0.001,0.903c-0.064,0.158 -0.117,0.217 -0.221,0.352c-2.7,3.558 -2.811,3.886 -4.842,6.435c-0.364,0.407 -0.701,0.488 -1.219,0.335c-0.211,-0.063 -0.296,-0.118 -0.462,-0.26c-1.239,-1.178 -1.777,-1.778 -2.953,-3.018c-0.142,-0.167 -0.196,-0.253 -0.258,-0.463c-0.053,-0.179 -0.062,-0.27 -0.044,-0.456c0.017,-0.187 0.044,-0.276 0.132,-0.442c0.067,-0.131 0.11,-0.187 0.213,-0.291c0.374,-0.375 0.682,-0.453 1.19,-0.303c0.234,0.07 0.329,0.133 0.505,0.3l1.904,1.95l4.049,-5.383c0.033,-0.041 0.021,-0.027 0.057,-0.063c0.173,-0.165 0.268,-0.227 0.497,-0.295c0.091,-0.027 0.134,-0.032 0.227,-0.043c0.071,-0.005 0.103,-0.007 0.172,-0.005l0,0Z" style="fill:#6f4ca1;"/></svg>