<?xml version="1.0" standalone="no"?><!DOCTYPE svg PUBLIC "-//W3C//DTD SVG 1.1//EN" "http://www.w3.org/Graphics/SVG/1.1/DTD/svg11.dtd"><svg width="100%" height="100%" viewBox="0 0 69 75" version="1.1" xmlns="http://www.w3.org/2000/svg" xmlns:xlink="http://www.w3.org/1999/xlink" xml:space="preserve" style="fill-rule:evenodd;clip-rule:evenodd;stroke-linejoin:round;stroke-miterlimit:1.41421;"><g id="Layer 1"><g><g opacity="0.238998"><path d="M67.125,70.539l-61.5,0c-1.036,0 -1.875,0.839 -1.875,1.875c0,1.036 0.839,1.875 1.875,1.875l61.5,0c1.036,0 1.875,-0.839 1.875,-1.875c0,-1.036 -0.839,-1.875 -1.875,-1.875" style="fill:#3e424b;fill-rule:nonzero;"/></g></g><path d="M64.915,12.274c-2.643,-2.643 -8.873,-8.721 -11.427,-11.277c-0.587,-0.633 -0.901,-0.997 -2.264,-0.997l-42.221,0c-1.25,0 -2.264,1.014 -2.264,2.265l0,67.528c0,1.25 1.014,2.265 2.264,2.265l54.727,0c1.249,0 2.264,-1.015 2.264,-2.265l0,-54.77c-0.001,-1.019 -0.105,-1.775 -1.079,-2.749" style="fill:#3e424b;fill-rule:nonzero;"/><path d="M51.32,1.54l-41.93,0c-0.625,0 -1.132,0.507 -1.132,1.132l0,66.722c0,0.625 0.506,1.132 1.132,1.132l53.975,0c0.625,0 1.132,-0.507 1.132,-1.132l0,-54.677l-13.177,-13.177" style="fill:#f7f9fc;fill-rule:nonzero;"/><path d="M24.75,46.539l-21.75,0c-1.657,0 -3,1.343 -3,3l0,12c0,1.657 1.343,3 3,3l21.75,0c1.657,0 3,-1.343 3,-3l0,-12c0,-1.657 -1.343,-3 -3,-3" style="fill:#3e424b;fill-rule:nonzero;"/><path d="M24.75,48.039l-21.75,0c-0.828,0 -1.5,0.672 -1.5,1.5l0,12c0,0.828 0.672,1.5 1.5,1.5l21.75,0c0.828,0 1.5,-0.672 1.5,-1.5l0,-12c0,-0.828 -0.672,-1.5 -1.5,-1.5" style="fill:#704d9f;fill-rule:nonzero;"/><path d="M51.196,1.927l0,11.739c0,0.636 0.516,1.151 1.151,1.151l11.773,0l-12.924,-12.89Z" style="fill:#d9d9dc;fill-rule:nonzero;"/><path d="M51.577,2.845l0,10.822c0,0.424 0.345,0.769 0.77,0.769l10.851,0l-11.621,-11.591ZM64.12,15.198l-11.773,0c-0.845,0 -1.532,-0.687 -1.532,-1.531l0,-11.74c0,-0.154 0.093,-0.293 0.236,-0.352c0.142,-0.058 0.305,-0.026 0.415,0.082l12.923,12.891c0.109,0.109 0.142,0.272 0.082,0.415c-0.058,0.142 -0.198,0.235 -0.351,0.235" style="fill:#d9d9dc;fill-rule:nonzero;"/><rect x="14.25" y="23.936" width="44.474" height="1.5" style="fill:#d9d9dc;fill-rule:nonzero;"/><rect x="14.25" y="18.169" width="44.474" height="1.5" style="fill:#d9d9dc;fill-rule:nonzero;"/><rect x="14.25" y="35.47" width="44.474" height="1.5" style="fill:#d9d9dc;fill-rule:nonzero;"/><rect x="14.25" y="29.703" width="44.474" height="1.5" style="fill:#d9d9dc;fill-rule:nonzero;"/><rect x="14.25" y="41.237" width="44.474" height="1.5" style="fill:#d9d9dc;fill-rule:nonzero;"/><rect x="32.25" y="47.005" width="26.25" height="1.5" style="fill:#d9d9dc;fill-rule:nonzero;"/><rect x="32.25" y="52.771" width="16.5" height="1.5" style="fill:#d9d9dc;fill-rule:nonzero;"/><rect x="32.25" y="58.539" width="16.5" height="1.5" style="fill:#d9d9dc;fill-rule:nonzero;"/><path d="M19.329,58.539l-1.584,0l0,-5.974l3.936,0l0,1.238l-2.351,0l0,1.269l2.154,0l0,1.213l-2.154,0l0,2.254l-0.001,0ZM13.766,57.359c1.262,0 1.584,-0.726 1.584,-1.848c0,-1.321 -0.429,-1.758 -1.477,-1.758l-0.544,0l0,3.606l0.437,0ZM11.745,58.539l0,-5.974l2.252,0c2.071,0 2.963,1.114 2.963,2.896c0,1.831 -0.966,3.078 -3.103,3.078l-2.112,0ZM8.376,55.519c0.528,0 0.94,-0.181 0.94,-0.932c0,-0.718 -0.428,-0.833 -0.849,-0.833l-0.396,0l0,1.765l0.305,0ZM8.071,58.539l-1.576,0l0,-5.974l2.458,0c1.527,0 1.989,0.949 1.989,1.898c0,1.452 -0.751,2.227 -2.376,2.227l-0.495,0l0,1.849Z" style="fill:#fff;fill-rule:nonzero;"/><path d="M52.832,55.511c0.2,-1.933 1.167,-3.226 3.078,-3.226c1.439,0 2.553,0.641 2.605,2.616l-1.681,0.179c-0.051,-0.935 -0.294,-1.25 -0.924,-1.25c-0.672,0 -1.029,0.504 -1.124,1.68l1.87,0l-0.252,1.503l-1.618,0c0.095,1.134 0.431,1.596 1.072,1.596c0.735,0 0.872,-0.452 1.009,-1.124l1.629,0.263c-0.222,1.902 -1.629,2.417 -2.733,2.417c-1.974,0 -2.804,-1.176 -2.941,-3.152l-0.84,0l0.252,-1.502l0.598,0Z" style="fill:#3e424b;fill-rule:nonzero;"/><path d="M31.318,6.104l-16.98,0c-0.049,0 -0.088,0.084 -0.088,0.187l0,7.125c0,0.104 0.039,0.188 0.088,0.188l16.98,0c0.048,0 0.087,-0.084 0.087,-0.188l0,-7.125c0,-0.103 -0.039,-0.187 -0.087,-0.187" style="fill:#704d9f;fill-rule:nonzero;"/></g></svg>
