<svg width="41" height="55" viewBox="0 0 41 55" xmlns="http://www.w3.org/2000/svg"><title>fav</title><defs><linearGradient x1="50%" y1="0%" x2="50%" y2="100%" id="a"><stop stop-color="#FF5722" offset="0%"/><stop stop-color="#FF5722" offset="100%"/></linearGradient></defs><g fill="none" fill-rule="evenodd"><path d="M36.884 50.757L20.578 37.712l-.007.007a1.213 1.213 0 0 0-.9-.406c-.358 0-.674.16-.898.406l-.008-.007L2.459 50.757V2.888h34.425v47.869zM38.114.429H1.229C.55.43 0 .98 0 1.66v51.638c0 .679.55 1.229 1.23 1.229.358 0 .674-.16.9-.406l.006.007L19.672 40.1l17.535 14.028.007-.007c.225.246.54.406.9.406.679 0 1.229-.55 1.229-1.23V1.66c0-.68-.55-1.23-1.23-1.23z" transform="translate(1 .045)" stroke="url(#a)" stroke-width=".5" fill="url(#a)"/><path fill="url(#a)" d="M19.687 9.848l2.946 7.941h7.247l-5.43 4.607 1.536 7.954-6.299-4.358-6.3 4.286 1.497-7.752-5.39-4.737h7.166z" transform="translate(1)"/><path stroke="url(#a)" stroke-linecap="round" stroke-linejoin="round" d="M19.687 9.848l2.946 7.941h7.247l-5.43 4.607 1.536 7.954-6.299-4.358-6.3 4.286 1.497-7.752-5.39-4.737h7.166z" transform="translate(1)"/></g></svg>
