<svg width="38" height="38" viewBox="0 0 38 38" xmlns="http://www.w3.org/2000/svg" fill-rule="evenodd" clip-rule="evenodd" stroke-linejoin="round" stroke-miterlimit="1.414"><path d="M15 4.05c6.075 0 11.025 4.95 11.025 11.025S21.075 26.1 15 26.1 3.975 21.075 3.975 15.075C3.975 9 8.925 4.05 15 4.05zm21.675 30l-9.825-9.9c.3-.375.45-.675.6-.825.075-.15.225-.3.3-.45 3.825-5.55 3-13.35-2.1-18.45C22.875 1.575 19.05 0 15.075 0c-4.05 0-7.8 1.575-10.65 4.425C1.575 7.275 0 11.025 0 15.075c0 4.05 1.575 7.8 4.425 10.65 2.85 2.85 6.6 4.425 10.65 4.425 2.4 0 4.8-.6 6.975-1.725.225-.15.975-.525 1.5-1.05l9.975 9.75c.075.075.375.375.825.375.225 0 .525-.075.825-.375l.525-.45 1.05-1.05c.525-.525.225-1.275-.075-1.575z" fill="#FF5722"/></svg>
