<svg width="34" height="38" viewBox="0 0 34 38" xmlns="http://www.w3.org/2000/svg" fill-rule="evenodd" clip-rule="evenodd" stroke-linejoin="round" stroke-miterlimit="1.414"><path d="M8.644 20.58l-8.24 8.313 8.24 8.24 2.06-2.06-4.782-4.782h26.925v-2.868H5.922l4.782-4.782-2.06-2.06zM25.196.35l-2.06 2.06 4.782 4.78H.993v2.87h26.925l-4.782 4.782 2.06 2.06 8.24-8.24L25.196.35z" fill="#FF5722" fill-rule="nonzero"/><path d="M8.644 37.5c-.074 0-.22 0-.294-.074L.11 29.114c-.147-.148-.147-.368 0-.515l8.24-8.24c.073-.074.147-.074.294-.074.074 0 .22.073.294.073l2.06 2.06c.147.146.147.367 0 .514l-4.12 4.12H32.92c.22 0 .368.147.368.368v2.87c0 .22-.147.366-.367.366H6.806l4.12 4.12c.073.074.073.147.073.294s.074.22 0 .295l-2.06 2.06c-.073.073-.147.073-.294.073zM.92 28.893l7.724 7.724 1.545-1.545-4.49-4.487c-.072-.074-.146-.294-.072-.368.073-.147.22-.22.368-.22h26.557v-2.134H5.923c-.148 0-.295-.074-.37-.22-.072-.148 0-.295.075-.37l4.487-4.486-1.545-1.545-7.65 7.65zM25.196 17.27c-.073 0-.22-.074-.294-.074l-2.06-2.06c-.073-.073-.073-.147-.073-.294s.072-.22.072-.294l4.12-4.12H.992c-.22 0-.367-.147-.367-.368V7.19c0-.22.147-.367.368-.367h26.042l-4.12-4.12c-.073-.073-.073-.147-.073-.294 0-.148 0-.22.074-.295l2.06-2.06c.073-.073.367-.073.44 0l8.24 8.24c.147.147.147.367 0 .514l-8.24 8.312c0 .074-.146.147-.22.147zM23.65 14.84l1.546 1.545 7.725-7.725L25.197.864 23.65 2.41l4.49 4.487c.072.073.146.294.072.368-.073.147-.22.22-.367.22H1.36V9.62H27.92c.147 0 .294.072.368.22.073.147 0 .294-.074.367l-4.56 4.635z" fill="#FF5722" fill-rule="nonzero"/></svg>
