<svg width="38" height="38" viewBox="0 0 38 38" xmlns="http://www.w3.org/2000/svg" fill-rule="evenodd" clip-rule="evenodd" stroke-linejoin="round" stroke-miterlimit="1.414"><path d="M34.425 23.775h-3.15V10.05c0-2.025-1.65-3.675-3.675-3.675H8.55V3.15h25.875v20.625zm-6.3 6.3h-4.35L19.5 34.35l-4.05-4.2H3.15v-20.1h24.9v20.025h.075zM33.9 0H9.15C7.05 0 5.4 1.65 5.4 3.675V6.3H3.675C1.65 6.3 0 8.025 0 10.05v19.5c0 2.025 1.65 3.675 3.675 3.675h10.2L16.8 36.3c.675.75 1.65 1.125 2.625 1.125h.075c.975 0 1.95-.375 2.625-1.05l3.15-3.15H27.6c2.025 0 3.675-1.65 3.675-3.675v-2.625H33.9c2.025 0 3.675-1.65 3.675-3.675V3.75C37.65 1.65 35.925 0 33.9 0z" fill="#FF5722"/><path fill="#FF5722" d="M7.066 15h17.25v1.5H7.066zM7.066 19.5h17.25V21H7.066zM7.066 24h17.25v1.5H7.066z"/></svg>
