<svg width="38" height="38" viewBox="0 0 38 38" xmlns="http://www.w3.org/2000/svg" fill-rule="evenodd" clip-rule="evenodd" stroke-linejoin="round" stroke-miterlimit="1.414"><clipPath id="a"><path d="M8.678 31.34c4.317-1.484 6.116-3.283 6.88-4.587.9.315 1.844.495 2.923.54h.27c1.17 0 2.204-.225 3.148-.63.718 1.304 2.472 3.148 6.924 4.677-2.743 2.203-6.25 3.552-10.07 3.552-3.823 0-7.33-1.35-10.074-3.552zm5.936-8.274c-2.473-2.788-1.934-8.137-1.934-8.182v-.09c.27-5.71 4.407-6.16 5.666-6.16h.27c.944-.046 5.574.09 5.844 6.16v.09c0 .045.54 5.44-1.934 8.182-.943 1.08-2.247 1.62-3.955 1.62h-.089c-1.618-.046-2.922-.54-3.866-1.62zM2.608 18.75c0-8.903 7.24-16.142 16.143-16.142s16.142 7.24 16.142 16.14c0 4.003-1.484 7.69-3.912 10.523-5.486-1.617-6.61-3.506-6.835-4.09.135-.135.27-.27.405-.45 3.147-3.553 2.653-9.532 2.563-10.16-.36-7.016-5.485-8.68-8.497-8.59-3.013-.09-8.184 1.62-8.5 8.59-.044.628-.583 6.607 2.564 10.16.18.225.405.45.63.63-.36.674-1.754 2.382-6.745 3.866-2.473-2.788-3.957-6.475-3.957-10.477zM18.75 0C8.41 0 0 8.41 0 18.75S8.41 37.5 18.75 37.5 37.5 29.09 37.5 18.75 29.09 0 18.75 0z"/></clipPath><g clip-path="url(#a)"><path fill="#FF5722" fill-rule="nonzero" d="M0 0h37.5v37.5H0z"/></g></svg>
