<svg width="39" height="32" viewBox="0 0 39 32" xmlns="http://www.w3.org/2000/svg" fill-rule="evenodd" clip-rule="evenodd" stroke-miterlimit="1.414"><clipPath id="a"><path d="M35.375 28.625H2.75v-12c.45.225.9.375 1.35.45.075 0 .225 0 .3.075h10.275v.375c0 1.275 1.05 2.325 2.325 2.325h4.275c1.275 0 2.325-1.05 2.325-2.325v-.375h10.125c.075 0 .225 0 .3-.075h.075c.45-.075.825-.225 1.275-.375v11.925zm-18.6-11.475v-1.425c0-.15.075-.225.225-.225h4.275c.15 0 .225.075.225.225v1.8c0 .15-.075.225-.225.225H17c-.15 0-.225-.075-.225-.225v-.375zM2.75 7.7h32.625v5.475c0 .975-.975 1.875-2.1 1.875h-9.75c-.3-.975-1.2-1.725-2.25-1.725H17c-1.05 0-1.95.75-2.25 1.725h-9.9c-.975 0-1.95-.75-2.1-1.575V7.7zm9.825-3.975c0-.525.45-.975.975-.975h11.1c.525 0 .975.45.975.975V5.6h-13.05V3.725zm24.975 3.9c0-1.125-.9-2.1-1.95-2.1h-7.875v-1.8C27.725 2 26.3.65 24.65.65h-11.1C11.9.65 10.475 2 10.475 3.725V5.6H2.6C1.55 5.6.65 6.5.65 7.7v20.925c0 1.125.9 2.1 1.95 2.1h33c1.05 0 1.95-.9 1.95-2.1v-21z"/></clipPath><g clip-path="url(#a)"><path fill="#FF5722" d="M-3.1-3.1h44.4v37.575H-3.1z"/></g><path d="M35.375 28.625H2.75v-12c.45.225.9.375 1.35.45.075 0 .225 0 .3.075h10.275v.375c0 1.275 1.05 2.325 2.325 2.325h4.275c1.275 0 2.325-1.05 2.325-2.325v-.375h10.125c.075 0 .225 0 .3-.075h.075c.45-.075.825-.225 1.275-.375v11.925z" fill="none" stroke-width=".75" stroke="#FF5722"/><path d="M16.775 17.15v-1.425c0-.15.075-.225.225-.225h4.275c.15 0 .225.075.225.225v1.8c0 .15-.075.225-.225.225H17c-.15 0-.225-.075-.225-.225v-.375zM2.75 7.7h32.625v5.475c0 .975-.975 1.875-2.1 1.875h-9.75c-.3-.975-1.2-1.725-2.25-1.725H17c-1.05 0-1.95.75-2.25 1.725h-9.9c-.975 0-1.95-.75-2.1-1.575V7.7zM12.575 3.725c0-.525.45-.975.975-.975h11.1c.525 0 .975.45.975.975V5.6h-13.05V3.725z" fill="none" stroke-width=".75" stroke="#FF5722"/><path d="M37.55 7.625c0-1.125-.9-2.1-1.95-2.1h-7.875v-1.8C27.725 2 26.3.65 24.65.65h-11.1C11.9.65 10.475 2 10.475 3.725V5.6H2.6C1.55 5.6.65 6.5.65 7.7v20.925c0 1.125.9 2.1 1.95 2.1h33c1.05 0 1.95-.9 1.95-2.1v-21z" fill="none" stroke-width=".75" stroke="#FF5722"/></svg>
