<svg width="90" height="95" viewBox="0 0 63 67" xmlns="http://www.w3.org/2000/svg" fill-rule="evenodd" clip-rule="evenodd" stroke-linejoin="round" stroke-miterlimit="1.414"><clipPath id="a"><path d="M57.587 60.335H7.884c-.852 0-1.51.697-1.51 1.51 0 .813.697 1.51 1.51 1.51h49.664c.852 0 1.51-.697 1.51-1.51 0-.813-.658-1.51-1.47-1.51z"/></clipPath><g clip-path="url(#a)"><path fill="#e0e0e2" fill-rule="nonzero" d="M3.02 56.98h59.393v9.73H3.02z"/></g><clipPath id="b"><path d="M55.806 13.265c-2.13-2.13-7.16-7.046-9.212-9.097-.465-.503-.736-.813-1.82-.813H10.632c-1.006 0-1.82.813-1.82 1.82v54.54c0 1.008.814 1.82 1.82 1.82H54.84a1.817 1.817 0 0 0 1.818-1.82V15.472c0-.812-.077-1.43-.852-2.205z"/></clipPath><g clip-path="url(#b)"><path fill="#4f535c" fill-rule="nonzero" d="M5.458 0h54.555v64.89H5.458z"/></g><clipPath id="c"><path d="M44.813 4.594h-33.87a.942.942 0 0 0-.93.93v53.882c0 .504.426.93.93.93h43.586a.942.942 0 0 0 .928-.93V15.24L44.813 4.593z"/></clipPath><g clip-path="url(#c)"><path fill="#f7f8fa" fill-rule="nonzero" d="M6.658 1.24h52.155v62.45H6.658z"/></g><clipPath id="d"><path d="M23.33 40.942H5.793a2.43 2.43 0 0 0-2.44 2.44v9.676a2.43 2.43 0 0 0 2.44 2.44h17.574a2.429 2.429 0 0 0 2.438-2.44V43.38c-.038-1.354-1.122-2.438-2.477-2.438z"/></clipPath><g clip-path="url(#d)"><path fill="#4f535c" fill-rule="nonzero" d="M0 37.587h29.16v21.265H0z"/></g><clipPath id="e"><path d="M23.33 42.142H5.793c-.66 0-1.2.542-1.2 1.2v9.677c0 .657.54 1.2 1.2 1.2h17.574c.658 0 1.2-.543 1.2-1.2V43.34c0-.658-.542-1.2-1.24-1.2z"/></clipPath><g clip-path="url(#e)"><path fill="#cb0000" fill-rule="nonzero" d="M1.24 38.787h26.683v18.787H1.24z"/></g><clipPath id="f"><path d="M44.852 4.67v9.6c0 .504.425.93.93.93h9.637L44.85 4.67z"/></clipPath><g clip-path="url(#f)"><path fill="#e0e0e2" fill-rule="nonzero" d="M41.497 1.316h17.277v17.24H41.497z"/></g><clipPath id="g"><path d="M40.903 13.69h-26.05v1.2h26.05v-1.2zm0-4.258h-26.05v1.2h26.05v-1.2zm-11.497 31.51v1.2H50.62v-1.2H29.405zm0 6.077h13.317v-1.2H29.406v1.2zm0 4.838h13.317v-1.2H29.406v1.2zm21.6-33.64H36.258v1.2h14.748v-1.2zm0 4.956H36.258v1.2h14.748v-1.2zm0 3.987H36.258v1.2h14.748v-1.2zm0 4.763H36.258v1.2h14.748v-1.2zm0 4.567H36.258v1.2h14.748v-1.2z"/></clipPath><g clip-path="url(#g)"><path fill="#e0e0e2" fill-rule="nonzero" d="M11.497 6.077h42.865v49.135H11.497z"/></g><clipPath id="h"><path d="M9.858 50.658H8.58v-4.84h1.975c1.24 0 1.587.776 1.587 1.55 0 1.16-.62 1.78-1.936 1.78H9.82l.038 1.51zm.27-2.44c.427 0 .775-.153.775-.734 0-.58-.348-.658-.697-.658h-.31v1.432c-.038-.04.233-.04.233-.04zm2.71 2.44v-4.84h1.82c1.665 0 2.4.892 2.4 2.324 0 1.47-.774 2.477-2.516 2.477 0 .038-1.703.038-1.703.038zm1.627-.968c1.006 0 1.277-.58 1.277-1.51 0-1.083-.348-1.432-1.2-1.432h-.426v2.904l.35.038zm4.49.968h-1.278v-4.84h3.175v1.008h-1.897v1.006h1.742v.968h-1.742v1.858z"/></clipPath><g clip-path="url(#h)"><path fill="#fff" fill-rule="nonzero" d="M5.226 42.465h18.98v11.548H5.227z"/></g><clipPath id="i"><path d="M46.013 48.18c.155-1.548.93-2.593 2.477-2.593 1.162 0 2.052.503 2.09 2.13l-1.354.154c-.04-.773-.232-1.005-.736-1.005-.542 0-.813.425-.89 1.354h1.51l-.194 1.2H47.6c.077.928.348 1.277.852 1.277.58 0 .696-.35.813-.89L50.58 50c-.193 1.548-1.315 1.935-2.206 1.935-1.587 0-2.284-.967-2.36-2.554h-.698l.194-1.2h.503z"/></clipPath><g clip-path="url(#i)"><path fill="#e0e0e2" fill-rule="nonzero" d="M41.96 42.232h11.975V55.29H41.96z"/></g><clipPath id="j"><path d="M14.968 18.026v7.858h7.858v-7.858h-7.858zm6.503 6.542h-5.225v-5.265h5.226v5.265z"/></clipPath><g clip-path="url(#j)"><path fill="#4f535c" fill-rule="nonzero" d="M11.613 14.67H26.18v14.57H11.614z"/></g><clipPath id="k"><path d="M17.33 20.426h3.057v3.058H17.33z"/></clipPath><g clip-path="url(#k)"><path fill="#4f535c" fill-rule="nonzero" d="M13.974 17.07h9.768v9.77h-9.768z"/></g><clipPath id="l"><path d="M14.968 29.794v7.858h7.858v-7.858h-7.858zm6.503 6.503h-5.225V31.07h5.226v5.227z"/></clipPath><g clip-path="url(#l)"><path fill="#4f535c" fill-rule="nonzero" d="M11.613 26.44H26.18v14.567H11.614z"/></g><clipPath id="m"><path d="M17.33 32.155h3.057v3.058H17.33z"/></clipPath><g clip-path="url(#m)"><path fill="#4f535c" fill-rule="nonzero" d="M13.974 28.8h9.768v9.768h-9.768z"/></g><clipPath id="n"><path d="M14.968 28.477h2.168v1.316h-2.168z"/></clipPath><g clip-path="url(#n)"><path fill="#4f535c" fill-rule="nonzero" d="M11.613 25.123h8.877v8.026h-8.877z"/></g><clipPath id="o"><path d="M14.968 25.845h2.168v1.316h-2.168z"/></clipPath><g clip-path="url(#o)"><path fill="#4f535c" fill-rule="nonzero" d="M11.613 22.49h8.877v8.026h-8.877z"/></g><clipPath id="p"><path d="M16.477 27.16h4.142v1.975h-4.143z"/></clipPath><g clip-path="url(#p)"><path fill="#4f535c" fill-rule="nonzero" d="M13.123 23.806h10.852v8.684H13.123z"/></g><clipPath id="q"><path d="M20.62 25.845h2.167v1.316H20.62z"/></clipPath><g clip-path="url(#q)"><path fill="#4f535c" fill-rule="nonzero" d="M17.265 22.49h8.877v8.026h-8.877z"/></g><clipPath id="r"><path d="M22.555 27.16h2.168v1.975h-2.168z"/></clipPath><g clip-path="url(#r)"><path fill="#4f535c" fill-rule="nonzero" d="M19.2 23.806h8.877v8.684H19.2z"/></g><clipPath id="s"><path d="M22.787 20.426h1.974v4.568h-1.973z"/></clipPath><g clip-path="url(#s)"><path fill="#4f535c" fill-rule="nonzero" d="M19.432 17.07h8.684v11.28h-8.684z"/></g><clipPath id="t"><path d="M24.76 18.026h1.975v2.632H24.76z"/></clipPath><g clip-path="url(#t)"><path fill="#4f535c" fill-rule="nonzero" d="M21.406 14.67h8.684v9.343h-8.684z"/></g><clipPath id="u"><path d="M24.76 24.994h1.975v2.168H24.76z"/></clipPath><g clip-path="url(#u)"><path fill="#4f535c" fill-rule="nonzero" d="M21.406 21.64h8.684v8.876h-8.684z"/></g><clipPath id="v"><path d="M26.697 27.16h4.374v1.975h-4.373z"/></clipPath><g clip-path="url(#v)"><path fill="#4f535c" fill-rule="nonzero" d="M23.342 23.806h11.084v8.684H23.342z"/></g><clipPath id="w"><path d="M24.76 29.135h1.975v2.168H24.76z"/></clipPath><g clip-path="url(#w)"><path fill="#4f535c" fill-rule="nonzero" d="M21.406 25.78h8.684v8.878h-8.684z"/></g><clipPath id="x"><path d="M22.787 31.303h1.974v1.974h-1.973z"/></clipPath><g clip-path="url(#x)"><path fill="#4f535c" fill-rule="nonzero" d="M19.432 27.948h8.684v8.684h-8.684z"/></g><clipPath id="y"><path d="M24.76 33.277h1.975v4.374H24.76z"/></clipPath><g clip-path="url(#y)"><path fill="#4f535c" fill-rule="nonzero" d="M21.406 29.923h8.684v11.084h-8.684z"/></g><clipPath id="z"><path d="M26.697 31.07h1.974v4.57h-1.973z"/></clipPath><g clip-path="url(#z)"><path fill="#4f535c" fill-rule="nonzero" d="M23.342 27.716h8.684v11.277h-8.684z"/></g><clipPath id="A"><path d="M32.58 25.845h1.975v1.974H32.58z"/></clipPath><g clip-path="url(#A)"><path fill="#4f535c" fill-rule="nonzero" d="M29.226 22.49h8.684v8.684h-8.684z"/></g><clipPath id="B"><path d="M31.07 27.82h1.975v1.973H31.07z"/></clipPath><g clip-path="url(#B)"><path fill="#4f535c" fill-rule="nonzero" d="M27.716 24.465H36.4v8.684h-8.684z"/></g><clipPath id="C"><path d="M28.67 29.135h2.4v2.168h-2.4z"/></clipPath><g clip-path="url(#C)"><path fill="#4f535c" fill-rule="nonzero" d="M25.316 25.78h9.11v8.878h-9.11z"/></g><clipPath id="D"><path d="M32.387 29.794h2.168v3.252h-2.168z"/></clipPath><g clip-path="url(#D)"><path fill="#4f535c" fill-rule="nonzero" d="M29.032 26.44h8.877v9.96H29.03z"/></g><clipPath id="E"><path d="M30.413 33.277h1.974v2.168h-1.974z"/></clipPath><g clip-path="url(#E)"><path fill="#4f535c" fill-rule="nonzero" d="M27.058 29.923h8.684V38.8h-8.684z"/></g><clipPath id="F"><path d="M28.67 35.445h2.17v2.168h-2.17z"/></clipPath><g clip-path="url(#F)"><path fill="#4f535c" fill-rule="nonzero" d="M25.316 32.09h8.877v8.877h-8.877z"/></g><clipPath id="G"><path d="M32.387 35.445h2.168v2.168h-2.168z"/></clipPath><g clip-path="url(#G)"><path fill="#4f535c" fill-rule="nonzero" d="M29.032 32.09h8.877v8.877H29.03z"/></g><clipPath id="H"><path d="M26.697 18.026v7.858h7.858v-7.858h-7.858zm6.542 6.542h-5.227v-5.265h5.226v5.265z"/></clipPath><g clip-path="url(#H)"><path fill="#4f535c" fill-rule="nonzero" d="M23.342 14.67H37.91v14.57H23.342z"/></g><clipPath id="I"><path d="M29.097 20.426h3.058v3.058h-3.058z"/></clipPath><g clip-path="url(#I)"><path fill="#4f535c" fill-rule="nonzero" d="M25.742 17.07h9.768v9.77h-9.768z"/></g></svg>
