<?xml version="1.0" standalone="no"?><!DOCTYPE svg PUBLIC "-//W3C//DTD SVG 1.1//EN" "http://www.w3.org/Graphics/SVG/1.1/DTD/svg11.dtd"><svg width="100%" height="100%" viewBox="0 0 17 17" version="1.1" xmlns="http://www.w3.org/2000/svg" xmlns:xlink="http://www.w3.org/1999/xlink" xml:space="preserve" style="fill-rule:evenodd;clip-rule:evenodd;stroke-linejoin:round;stroke-miterlimit:1.41421;"><path d="M14.479,7.363l-7.299,7.299c-0.047,0.048 -0.094,0.048 -0.141,0l-5.316,-5.315c-0.023,-0.023 -0.028,-0.051 -0.028,-0.07c0,-0.02 0.005,-0.048 0.028,-0.072l7.3,-7.299c0.113,-0.112 0.374,-0.211 0.56,-0.211c0.016,0 0.032,0.001 0.046,0.002l4.299,0.527c0.099,0.012 0.221,0.135 0.233,0.234l0.527,4.299c0.022,0.175 -0.083,0.481 -0.209,0.606l0,0ZM15.683,6.634l-0.526,-4.298c-0.069,-0.553 -0.555,-1.039 -1.107,-1.106l-4.299,-0.527c-0.481,-0.06 -1.097,0.155 -1.437,0.495l-7.3,7.299c-0.207,0.208 -0.321,0.485 -0.321,0.78c0,0.295 0.114,0.572 0.321,0.78l5.316,5.315c0.208,0.207 0.484,0.322 0.78,0.322c0.295,0 0.571,-0.115 0.779,-0.323l7.299,-7.299c0.341,-0.341 0.554,-0.959 0.495,-1.438l0,0Z" style="fill:#6f4ca1;fill-rule:nonzero;stroke-width:0.5rem;stroke:#6f4ca1;"/><path d="M10.747,6.984c-0.184,0.183 -0.427,0.284 -0.686,0.284c-0.259,0 -0.503,-0.101 -0.686,-0.284c-0.183,-0.183 -0.283,-0.427 -0.283,-0.685c0,-0.259 0.1,-0.502 0.283,-0.686c0.183,-0.183 0.427,-0.284 0.686,-0.284c0.259,0 0.502,0.101 0.686,0.284c0.377,0.378 0.377,0.993 0,1.371M10.061,4.321c-0.528,0 -1.024,0.206 -1.398,0.58c-0.374,0.373 -0.579,0.87 -0.579,1.398c0,0.528 0.205,1.024 0.579,1.398c0.374,0.373 0.87,0.579 1.397,0.579c0.529,0 1.025,-0.206 1.399,-0.579c0.771,-0.771 0.771,-2.026 0,-2.796c-0.373,-0.374 -0.87,-0.58 -1.398,-0.58" style="fill:#6f4ca1;fill-rule:nonzero;stroke-width:0.188rem;stroke:#6f4ca1;"/></svg>
