<?xml version="1.0" encoding="UTF-8" standalone="no"?>
<svg id="svg2" xmlns:rdf="http://www.w3.org/1999/02/22-rdf-syntax-ns#" xmlns="http://www.w3.org/2000/svg" viewBox="0 0 20 16" version="1.1" xmlns:cc="http://creativecommons.org/ns#" xmlns:dc="http://purl.org/dc/elements/1.1/">
 <path id="path4" style="fill:#6f4ca1;clip-rule:evenodd;fill-rule:evenodd" d="m8.533 6.78-1.064-2.703-1.07 2.703-2.975 0.236 2.315 1.794-0.771 2.961 2.498-1.707 2.502 1.707-0.776-2.961 2.321-1.794-2.98-0.236zm9.467-6.78h-16c-1.104 0-2 0.896-2 2v12c0 1.104 0.896 2 2 2h16c1.104 0 2-0.896 2-2v-12c0-1.104-0.896-2-2-2zm0 5h-5v2h5v2h-5v2h5v2.6c0 0.222-0.18 0.4-0.4 0.4h-15.2c-0.221 0-0.4-0.179-0.4-0.4v-11.2c0-0.222 0.179-0.4 0.4-0.4h15.2c0.221 0 0.4 0.179 0.4 0.4v2.6z"/>
</svg>
