<?xml version="1.0" standalone="no"?><!DOCTYPE svg PUBLIC "-//W3C//DTD SVG 1.1//EN" "http://www.w3.org/Graphics/SVG/1.1/DTD/svg11.dtd"><svg width="100%" height="100%" viewBox="0 0 69 75" version="1.1" xmlns="http://www.w3.org/2000/svg" xmlns:xlink="http://www.w3.org/1999/xlink" xml:space="preserve" style="fill-rule:evenodd;clip-rule:evenodd;stroke-linejoin:round;stroke-miterlimit:1.41421;"><g id="Layer 1"><g><g opacity="0.238998"><path d="M67.125,70.539l-61.5,0c-1.036,0 -1.875,0.839 -1.875,1.875c0,1.036 0.839,1.875 1.875,1.875l61.5,0c1.036,0 1.875,-0.839 1.875,-1.875c0,-1.036 -0.839,-1.875 -1.875,-1.875" style="fill:#3e424b;fill-rule:nonzero;"/></g></g><path d="M64.915,12.274c-2.643,-2.643 -8.873,-8.721 -11.427,-11.277c-0.587,-0.633 -0.901,-0.997 -2.264,-0.997l-42.221,0c-1.25,0 -2.264,1.014 -2.264,2.265l0,67.528c0,1.25 1.014,2.265 2.264,2.265l54.727,0c1.249,0 2.264,-1.015 2.264,-2.265l0,-54.77c-0.001,-1.019 -0.105,-1.775 -1.079,-2.749" style="fill:#3e424b;fill-rule:nonzero;"/><path d="M51.32,1.54l-41.93,0c-0.625,0 -1.132,0.507 -1.132,1.132l0,66.722c0,0.625 0.506,1.132 1.132,1.132l53.975,0c0.625,0 1.132,-0.507 1.132,-1.132l0,-54.677l-13.177,-13.177" style="fill:#f7f9fc;fill-rule:nonzero;"/><path d="M24.75,46.539l-21.75,0c-1.657,0 -3,1.343 -3,3l0,12c0,1.657 1.343,3 3,3l21.75,0c1.657,0 3,-1.343 3,-3l0,-12c0,-1.657 -1.343,-3 -3,-3" style="fill:#3e424b;fill-rule:nonzero;"/><path d="M24.708,47.881l-21.75,0c-0.828,0 -1.5,0.672 -1.5,1.5l0,12c0,0.828 0.672,1.5 1.5,1.5l21.75,0c0.828,0 1.5,-0.672 1.5,-1.5l0,-12c0,-0.828 -0.672,-1.5 -1.5,-1.5" style="fill:#704d9f;fill-rule:nonzero;"/><path d="M32.25,60.039l15.437,0l0,-1.5l-15.437,0l0,1.5ZM32.25,54.039l15.437,0l0,-1.5l-15.437,0l0,1.5ZM32.25,48.039l26.25,0l0,-1.5l-26.25,0l0,1.5ZM58.724,39.429l-44.474,0l0,1.5l44.474,0l0,-1.5ZM58.724,28.798l-44.474,0l0,1.5l44.474,0l0,-1.5ZM58.724,34.048l-44.474,0l0,1.5l44.474,0l0,-1.5ZM58.724,18.169l-44.474,0l0,1.5l44.474,0l0,-1.5ZM58.724,23.419l-44.474,0l0,1.5l44.474,0l0,-1.5Z" style="fill:#d9d9dc;fill-rule:nonzero;"/><path d="M31.318,6.104l-16.98,0c-0.049,0 -0.088,0.084 -0.088,0.187l0,7.125c0,0.104 0.039,0.188 0.088,0.188l16.98,0c0.048,0 0.087,-0.084 0.087,-0.188l0,-7.125c0,-0.103 -0.039,-0.187 -0.087,-0.187" style="fill:#704d9f;fill-rule:nonzero;"/><path d="M9.012,52.204c0.774,0 1.434,0.377 1.867,0.811l-0.886,1c-0.302,-0.264 -0.566,-0.416 -0.962,-0.416c-0.736,0 -1.357,0.66 -1.357,1.773c0,1.15 0.528,1.791 1.319,1.791c0.472,0 0.811,-0.207 1.075,-0.49l0.887,0.981c-0.519,0.603 -1.226,0.904 -1.981,0.904c-1.602,0 -2.96,-1.036 -2.96,-3.13c0,-2.055 1.414,-3.224 2.998,-3.224" style="fill:#fff;fill-rule:nonzero;"/><path d="M12.07,56.569c0.433,0.349 0.981,0.594 1.433,0.594c0.491,0 0.698,-0.16 0.698,-0.433c0,-0.293 -0.312,-0.387 -0.83,-0.594l-0.764,-0.321c-0.66,-0.264 -1.235,-0.82 -1.235,-1.707c0,-1.046 0.943,-1.904 2.282,-1.904c0.697,0 1.47,0.263 2.036,0.82l-0.811,1.018c-0.415,-0.292 -0.772,-0.443 -1.225,-0.443c-0.396,0 -0.642,0.142 -0.642,0.415c0,0.292 0.349,0.396 0.906,0.613l0.744,0.292c0.764,0.302 1.198,0.83 1.198,1.679c0,1.037 -0.868,1.96 -2.395,1.96c-0.773,0 -1.659,-0.283 -2.319,-0.877l0.924,-1.112Z" style="fill:#fff;fill-rule:nonzero;"/><path d="M16.07,52.317l1.716,0l0.642,2.677c0.169,0.651 0.282,1.283 0.452,1.943l0.038,0c0.169,-0.66 0.292,-1.292 0.452,-1.943l0.623,-2.677l1.659,0l-1.811,6.128l-1.96,0l-1.811,-6.128Z" style="fill:#fff;fill-rule:nonzero;"/><path d="M58.724,56.225c0,2.071 -1.679,3.75 -3.75,3.75c-2.07,0 -3.75,-1.679 -3.75,-3.75c0,-2.071 1.68,-3.75 3.75,-3.75c2.071,0 3.75,1.679 3.75,3.75" style="fill:#3e424b;fill-rule:nonzero;"/><path d="M51.193,1.927l0,11.739c0,0.636 0.515,1.151 1.15,1.151l11.773,0l-12.923,-12.89Z" style="fill:#d9d9dc;fill-rule:nonzero;"/><path d="M51.574,2.845l0,10.822c0,0.424 0.345,0.769 0.769,0.769l10.851,0l-11.62,-11.591ZM64.116,15.198l-11.773,0c-0.844,0 -1.531,-0.687 -1.531,-1.531l0,-11.74c0,-0.154 0.093,-0.293 0.235,-0.352c0.142,-0.058 0.306,-0.026 0.415,0.082l12.923,12.891c0.109,0.109 0.142,0.272 0.083,0.415c-0.059,0.142 -0.198,0.235 -0.352,0.235" style="fill:#d9d9dc;fill-rule:nonzero;"/></g></svg>