<?xml version="1.0" standalone="no"?><!DOCTYPE svg PUBLIC "-//W3C//DTD SVG 1.1//EN" "http://www.w3.org/Graphics/SVG/1.1/DTD/svg11.dtd"><svg width="100%" height="100%" viewBox="0 0 42 34" version="1.1" xmlns="http://www.w3.org/2000/svg" xmlns:xlink="http://www.w3.org/1999/xlink" xml:space="preserve" style="fill-rule:evenodd;clip-rule:evenodd;stroke-linejoin:round;stroke-miterlimit:1.41421;"><g id="Isolation Mode"><clipPath id="_clip1"><rect x="0" y="0" width="41.913" height="33.53"/></clipPath><g clip-path="url(#_clip1)"><path d="M37.722,10.478l-21.108,0l0,4.191l21.108,0l0,4.192l-21.108,0l0,4.191l21.108,0l0,5.449c0,0.465 -0.378,0.838 -0.839,0.838l-31.854,0c-0.463,0 -0.838,-0.375 -0.838,-0.838l0,-23.472c0,-0.465 0.375,-0.838 0.838,-0.838l31.854,0c0.464,0 0.839,0.376 0.839,0.838l0,5.449ZM37.722,0l-33.531,0c-2.313,0 -4.191,1.878 -4.191,4.191l0,25.148c0,2.314 1.878,4.191 4.191,4.191l33.531,0c2.313,0 4.191,-1.877 4.191,-4.191l0,-25.148c0,-2.313 -1.878,-4.191 -4.191,-4.191" style="fill:#FFFFFF;fill-rule:nonzero;"/></g></g></svg>
