<?xml version="1.0" encoding="UTF-8" standalone="no"?>
<svg id="svg2" xmlns:rdf="http://www.w3.org/1999/02/22-rdf-syntax-ns#" style="stroke-linejoin:round;clip-rule:evenodd;stroke-miterlimit:1.4142;fill-rule:evenodd" xmlns="http://www.w3.org/2000/svg" xml:space="preserve" height="100%" width="100%" version="1.1" xmlns:cc="http://creativecommons.org/ns#" xmlns:dc="http://purl.org/dc/elements/1.1/" viewBox="0 0 9 11"><g id="Layer 1" transform="matrix(1.0815 0 0 1.0652 .147 .20946)"><clipPath id="_clip1"><rect id="rect6" y="0" x="0" height="10.006" width="8.01"/></clipPath><g id="g8" clip-path="url(#_clip1)"><path id="path10" style="fill:#FFF;fill-rule:nonzero" d="m4.002 6.003c1.268 0 2.669-0.933 2.669-3.201s-1.335-2.802-2.669-2.802-2.668 0.534-2.668 2.802 1.467 3.201 2.668 3.201m2.335-0.333c-0.668 0.734-1.535 1.067-2.335 1.067s-1.667-0.333-2.335-1.067c-1.2 0.667-1.667 1.868-1.667 2.802 0 1.467 1.801 1.533 4.002 1.533s4.002-0.066 4.002-1.533c0.067-0.934-0.466-2.135-1.667-2.802"/></g></g></svg>
